Coordinates
version=1
nRows=20
nColumns=23
inDegrees=yes

Units are S.I. units (second, meters, Newtons, ...)
If the header above contains a line with 'inDegrees', this indicates whether rotational values are in degrees (yes) or radians (no).

endheader
time	pelvis_tilt	pelvis_list	pelvis_rotation	pelvis_tx	pelvis_ty	pelvis_tz	hip_flexion_r	hip_adduction_r	hip_rotation_r	knee_angle_r	knee_angle_r_beta	ankle_angle_r	subtalar_angle_r	mtp_angle_r	hip_flexion_l	hip_adduction_l	hip_rotation_l	knee_angle_l	knee_angle_l_beta	ankle_angle_l	subtalar_angle_l	mtp_angle_l
      0.00000000	     -9.61510340	     -9.12441813	     -2.10300910	      2.37212786	      1.03556829	      1.01653554	     52.30010289	      9.03993434	     -6.34117609	     29.13262872	      0.50846029	      3.91671378	     -3.51954921	      0.00000000	    -20.61701186	     -8.91654459	     -8.83684470	     31.65714903	      0.55252148	    -25.62433106	     -4.50003542	      0.00000000
      0.00666667	     -8.97972101	     -8.95761545	     -1.45993242	      2.37279439	      1.03608254	      1.01558610	     51.07974265	      8.30622661	     -7.27414113	     27.99457516	      0.48859751	      3.59861379	     -1.62579172	      0.00000000	    -19.88816224	     -8.72179189	     -6.97405754	     36.27308413	      0.63308475	    -25.75673864	     -6.89236044	      0.00000000
      0.01333333	     -8.42284337	     -8.90958539	     -0.87659160	      2.37333427	      1.03604677	      1.01464260	     49.95019662	      7.81647460	     -7.89580328	     26.92112514	      0.46986227	      3.07508071	     -0.49043503	      0.00000000	    -19.17347046	     -8.61334319	     -5.45458988	     40.78320901	      0.71180128	    -25.78935746	     -8.63971771	      0.00000000
      0.02000000	     -7.84645334	     -8.76503894	     -0.30573708	      2.37388035	      1.03564606	      1.01352617	     48.91828605	      7.14078436	     -8.84504093	     26.36263717	      0.46011482	      2.92663215	      1.32657850	      0.00000000	    -18.56777957	     -8.24199344	     -3.84160589	     45.06293761	      0.78649663	    -26.06816877	    -10.62730456	      0.00000000
      0.02666667	     -7.31631884	     -8.80014256	      0.21687386	      2.37443381	      1.03473630	      1.01246027	     47.90521711	      6.77390094	     -9.37836903	     26.00097576	      0.45380264	      2.46419868	      1.91640247	      0.00000000	    -17.90840793	     -8.10074809	     -2.62600941	     49.36086628	      0.86150964	    -26.25843280	    -12.05369253	      0.00000000
      0.03333333	     -6.68989363	     -8.64020801	      0.50864365	      2.37508469	      1.03351492	      1.01153042	     46.85711620	      6.33957125	     -9.86421388	     26.21975361	      0.45762103	      2.45396248	      2.78507884	      0.00000000	    -17.42324422	     -7.66634313	     -1.75105129	     53.47869795	      0.93337936	    -26.56560374	    -13.51426142	      0.00000000
      0.04000000	     -6.00930414	     -8.65415164	      0.73196565	      2.37583668	      1.03186523	      1.01071327	     45.71540833	      6.16745017	    -10.10862550	     26.73117719	      0.46654705	      2.30501524	      2.76680747	      0.00000000	    -16.96750991	     -7.47085594	     -1.22390944	     57.60408080	      1.00538087	    -26.68281633	    -14.55494668	      0.00000000
      0.04666667	     -5.36781811	     -8.64189789	      0.88066854	      2.37665873	      1.02967302	      1.00996586	     44.61458253	      5.97902159	    -10.35391421	     27.65899195	      0.48274048	      2.24035020	      2.61669953	      0.00000000	    -16.43523523	     -7.22867847	     -0.81978239	     61.68252596	      1.07656317	    -26.87151708	    -15.66792671	      0.00000000
      0.05333333	     -4.83021458	     -8.50691881	      0.88776739	      2.37758178	      1.02683780	      1.00937530	     43.61661477	      5.74037332	    -10.45474503	     28.97245707	      0.50566477	      2.20582397	      2.43080018	      0.00000000	    -15.77690111	     -6.79300676	     -0.52168894	     65.68805776	      1.14647289	    -27.06654588	    -16.93092875	      0.00000000
      0.06000000	     -4.08720210	     -8.52189415	      0.82164041	      2.37857944	      1.02377805	      1.00900180	     42.29316540	      5.74259234	    -10.40684692	     30.38729913	      0.53035842	      2.29399485	      1.88451777	      0.00000000	    -15.33109535	     -6.61438663	     -0.56987838	     69.61176491	      1.21495450	    -26.86752021	    -17.89404086	      0.00000000
      0.06666667	     -3.37806346	     -8.51797238	      0.62473568	      2.37959489	      1.02021398	      1.00885222	     40.93425029	      5.81256672	    -10.20343505	     31.94122158	      0.55747948	      2.31489447	      1.29786345	      0.00000000	    -14.83482366	     -6.43020527	     -0.80332107	     73.44316127	      1.28182498	    -26.47701496	    -18.88169006	      0.00000000
      0.07333333	     -3.07232910	     -8.32782418	      0.32183396	      2.38035028	      1.01578558	      1.00892685	     39.95563667	      5.95128065	     -9.17036752	     33.55728782	      0.58568516	      2.33462234	     -0.22561567	      0.00000000	    -13.80511040	     -5.97407943	     -0.94476908	     77.27897828	      1.34877261	    -25.99101891	    -20.12551561	      0.00000000
      0.08000000	     -2.44168058	     -8.40702814	      0.02854292	      2.38117903	      1.01139127	      1.00908460	     38.54195966	      6.22525935	     -8.68694883	     35.22137162	      0.61472890	      2.65614115	     -0.80376426	      0.00000000	    -13.13394164	     -5.95077706	     -1.35009314	     80.96554735	      1.41311538	    -25.08736334	    -21.12413059	      0.00000000
      0.08666667	     -2.33424949	     -8.28609302	     -0.46122335	      2.38155353	      1.00607864	      1.00972798	     37.68870588	      6.65625593	     -7.27717747	     36.95203458	      0.64493467	      3.09562142	     -2.44356806	      0.00000000	    -11.76797440	     -5.73936228	     -1.81202761	     84.69484587	      1.47820392	    -23.97019101	    -22.12921024	      0.00000000
      0.09333333	     -1.81160105	     -8.45333104	     -0.83758649	      2.38188853	      1.00115289	      1.01019542	     36.33434124	      7.14830771	     -6.58547238	     38.74869794	      0.67629236	      4.05207800	     -2.99750667	      0.00000000	    -10.83593782	     -5.95380776	     -2.34640201	     88.23693728	      1.54002508	    -22.65504296	    -23.19618739	      0.00000000
      0.10000000	     -2.13923462	     -8.41495995	     -1.47510861	      2.38152912	      0.99513630	      1.01120008	     35.95423342	      7.87616675	     -4.89838843	     40.66559041	      0.70974844	      5.33786476	     -4.69962604	      0.00000000	     -8.78628059	     -5.99698761	     -2.91895703	     91.90295951	      1.60400924	    -21.15344507	    -23.86217314	      0.00000000
      0.10666667	     -2.26102641	     -8.57952092	     -2.00895765	      2.38099187	      0.98952273	      1.01201951	     35.33028451	      8.62718521	     -3.81523939	     42.66215171	      0.74459501	      7.04371541	     -5.65725857	      0.00000000	     -6.87770746	     -6.38417674	     -3.45070518	     95.41492187	      1.66530454	    -19.57374126	    -24.55555797	      0.00000000
      0.11333333	     -2.53895866	     -8.83195374	     -2.53476676	      2.38004897	      0.98393418	      1.01286653	     34.87984050	      9.47562763	     -2.85990815	     44.72079574	      0.78052513	      9.07321353	     -6.58559348	      0.00000000	     -4.65754351	     -6.94692284	     -3.87474632	     98.86078482	      1.72544620	    -18.03422735	    -25.06787141	      0.00000000
      0.12000000	     -2.95750015	     -9.14489538	     -3.01209370	      2.37871120	      0.97855893	      1.01364744	     34.55813679	     10.34172686	     -2.09769399	     46.77364444	      0.81635410	     11.26266853	     -7.40422088	      0.00000000	     -2.10497577	     -7.65900919	     -4.12281209	    102.21109065	      1.78392006	    -16.53280297	    -25.36448311	      0.00000000
      0.12666667	     -3.20557014	     -9.59715924	     -3.37487797	      2.37720978	      0.97398389	      1.01422645	     33.94090027	     11.24489198	     -1.58331463	     48.66668064	      0.84939381	     13.65062632	     -7.94041679	      0.00000000	      0.38721251	     -8.55882333	     -4.14608867	    105.32818885	      1.83832369	    -15.29480773	    -25.69044217	      0.00000000
